<svg width="99" height="99" viewBox="0 0 99 99" fill="none" xmlns="http://www.w3.org/2000/svg">
<g clip-path="url(#clip0)">
<path d="M98.3225 47.4697L85.4256 34.708V16.6674C85.4256 15.1017 84.0917 13.7285 82.5252 13.7285H64.4846L51.7229 0.870117C51.2017 0.290039 50.4472 0 49.6934 0C48.9388 0 48.185 0.290039 47.6631 0.870117L34.9014 13.7285H16.8608C15.2943 13.7285 13.9219 15.1017 13.9219 16.6674V34.708L1.06348 47.4697C-0.0966798 48.5717 -0.0966798 50.4283 1.06348 51.5303L13.9219 64.292V82.3326C13.9219 83.8983 15.2943 85.2715 16.8608 85.2715H34.9014L47.6631 98.1299C48.185 98.71 48.9388 99 49.6934 99C50.4472 99 51.2017 98.71 51.7229 98.1299L64.4846 85.2715H82.5252C84.0917 85.2715 85.4256 83.8983 85.4256 82.3326V64.292L98.3225 51.5303C99.4834 50.4283 99.4834 48.5717 98.3225 47.4697Z" fill="#FFE1BA"/>
<path d="M98.3225 51.5303L85.4256 64.292V82.3326C85.4256 83.8983 84.0917 85.2715 82.5252 85.2715H64.4846L51.7229 98.1299C51.2017 98.71 50.4472 99 49.6934 99V0C50.4472 0 51.2017 0.290039 51.7229 0.870117L64.4854 13.7285H82.5259C84.0917 13.7285 85.4263 15.1017 85.4263 16.6674V34.708L98.3232 47.4697C99.4834 48.5717 99.4834 50.4283 98.3225 51.5303Z" fill="#FFE1BA"/>
<path d="M98.3225 51.5303L85.4256 64.292V82.3326C85.4256 83.8983 84.0917 85.2715 82.5252 85.2715H64.4846L51.7229 98.1299C51.2017 98.71 50.4472 99 49.6934 99V0C50.4472 0 51.2017 0.290039 51.7229 0.870117L64.4854 13.7285H82.5259C84.0917 13.7285 85.4263 15.1017 85.4263 16.6674V34.708L98.3232 47.4697C99.4834 48.5717 99.4834 50.4283 98.3225 51.5303Z" fill="#FFE1BA"/>
<path d="M62.977 49.5L59.2646 53.2705C58.6845 53.7924 58.3945 54.5469 58.3945 55.3007V58.2011H55.4941C54.7395 58.2011 53.9857 58.4912 53.4638 59.0712L49.6933 62.7836L45.922 59.0712C45.4009 58.4912 44.6463 58.2011 43.8925 58.2011H40.9921V55.3007C40.9921 54.5469 40.7021 53.7924 40.1213 53.2705L36.4097 49.5L40.122 45.7294C40.7021 45.2075 40.9921 44.453 40.9921 43.6992V40.7988H43.8925C44.6463 40.7988 45.4009 40.5087 45.922 39.9287L49.6933 36.2163L53.4638 39.9287C53.9857 40.5087 54.7395 40.7988 55.4941 40.7988H58.3945V43.6992C58.3945 44.453 58.6845 45.2075 59.2646 45.7294L62.977 49.5Z" fill="#61D7B0"/>
<path d="M56.306 13.767H55.4941C53.2893 13.767 51.2598 14.6371 49.6933 16.0291C48.1268 14.6371 46.0965 13.767 43.8925 13.767H43.0806L49.6933 7.01904L56.306 13.767Z" fill="#61D7B0"/>
<path d="M7.19531 49.5L13.9795 42.9092V43.6992C13.9795 45.9357 14.8511 47.9569 16.2424 49.5C14.8511 51.0431 13.9795 53.0643 13.9795 55.3008V56.0909L7.19531 49.5Z" fill="#61D7B0"/>
<path d="M56.306 85.2329L49.6933 91.9808L43.0806 85.2329H43.8925C46.1547 85.2329 48.1268 84.3627 49.6933 82.9707C51.2598 84.3627 53.2319 85.2329 55.4941 85.2329H56.306Z" fill="#61D7B0"/>
<path d="M64.1953 59.9006V56.5017L68.2966 52.4004H76.7055C78.306 52.4004 79.6422 53.7003 79.6422 55.3008V61.8916L74.9471 66.5511C73.8142 67.6841 71.9788 67.6841 70.8458 66.5511L64.1953 59.9006Z" fill="#FF9100"/>
<path d="M79.6421 19.5513V28.9058L79.0839 28.3476C77.5091 26.7728 75.4426 25.9284 73.3776 25.8151C73.2643 23.75 72.4206 21.6843 70.8458 20.1094L70.2876 19.5513H79.6421Z" fill="#06CCAB"/>
<path d="M66.7445 74.7538L62.085 79.4488H55.4941C53.8936 79.4488 52.5938 78.1126 52.5938 76.5121V68.1033L56.6951 64.002H60.094L66.7445 70.6525C67.8744 71.7824 67.8744 73.6238 66.7445 74.7538Z" fill="#FF9100"/>
<path d="M32.6425 74.7538C31.5118 73.6238 31.5118 71.7824 32.6425 70.6525L39.293 64.002H42.6919L46.7932 68.1033V76.5129C46.7932 78.1126 45.4925 79.4488 43.8928 79.4488H37.3012L32.6425 74.7538Z" fill="#FDBF00"/>
<path d="M32.6424 24.2463L37.3011 19.5513H43.8927C45.4925 19.5513 46.7931 20.8874 46.7931 22.4879V30.8968L42.6918 34.9981H39.2929L32.6424 28.3476C31.5124 27.2177 31.5124 25.3762 32.6424 24.2463Z" fill="#FDBF00"/>
<path d="M66.7445 24.2463C67.8744 25.3762 67.8744 27.2177 66.7445 28.3476L60.094 34.9981H56.6951L52.5938 30.8968V22.4872C52.5938 20.8874 53.8936 19.5513 55.4941 19.5513H62.085L66.7445 24.2463Z" fill="#FF9100"/>
<path d="M35.1915 39.0993V42.4982L31.0901 46.5996H22.6805C21.08 46.5996 19.7446 45.2997 19.7446 43.6992V37.1084L24.4396 32.4488C25.5726 31.3159 27.408 31.3159 28.541 32.4488L35.1915 39.0993Z" fill="#FDBF00"/>
<path d="M19.7446 55.3008C19.7446 53.7003 21.08 52.4004 22.6805 52.4004H31.0901L35.1915 56.5017V59.9006L28.541 66.5511C27.408 67.6841 25.5726 67.6841 24.4396 66.5511L19.7446 61.8916V55.3008Z" fill="#FDBF00"/>
<path d="M79.6422 43.6992C79.6422 45.2997 78.306 46.5996 76.7055 46.5996H68.2966L64.1953 42.4982V39.0993L70.8458 32.4488C71.9788 31.3159 73.8142 31.3159 74.9471 32.4488L79.6422 37.1084V43.6992Z" fill="#FF9100"/>
<path d="M19.7446 19.5513H29.0984L28.541 20.1094C26.9661 21.6843 26.1217 23.7508 26.0084 25.8158C23.9434 25.9291 21.8776 26.7728 20.302 28.3476L19.7446 28.9058V19.5513Z" fill="#61D7B0"/>
<path d="M19.7446 79.4487V70.0942L20.3028 70.6524C21.8776 72.2272 23.9434 73.0717 26.0084 73.185C26.1217 75.25 26.9662 77.3158 28.541 78.8906L29.0991 79.4487H19.7446Z" fill="#61D7B0"/>
<path d="M79.6421 79.4487H70.2876L70.8458 78.8906C72.4206 77.3158 73.2643 75.2492 73.3776 73.1842C75.4426 73.0709 77.5091 72.2272 79.0839 70.6524L79.6421 70.0942V79.4487Z" fill="#06CCAB"/>
<path d="M85.4069 56.0909V55.3008C85.4069 53.0643 84.5353 51.0431 83.144 49.5C84.5353 47.9569 85.4069 45.9357 85.4069 43.6992V42.9092L92.1919 49.5L85.4069 56.0909Z" fill="#06CCAB"/>
<path d="M55.4941 85.2329H56.3061L49.6934 91.9808V82.9707C51.2599 84.3627 53.232 85.2329 55.4941 85.2329Z" fill="#06CCAB"/>
<path d="M55.4941 13.767C53.2894 13.767 51.2599 14.6371 49.6934 16.0291V7.01904L56.3061 13.767H55.4941Z" fill="#06CCAB"/>
<path d="M62.977 49.5L59.2647 53.2705C58.6846 53.7924 58.3945 54.5469 58.3945 55.3007V58.2011H55.4941C54.7396 58.2011 53.9858 58.4912 53.4639 59.0712L49.6934 62.7836V36.2163L53.4639 39.9287C53.9858 40.5087 54.7396 40.7988 55.4941 40.7988H58.3945V43.6992C58.3945 44.453 58.6846 45.2075 59.2647 45.7294L62.977 49.5Z" fill="#06CCAB"/>
</g>
<defs>
<clipPath id="clip0">
<rect width="99" height="99" fill="white"/>
</clipPath>
</defs>
</svg>
