<svg width="178" height="178" viewBox="0 0 178 178" fill="none" xmlns="http://www.w3.org/2000/svg">
<g clip-path="url(#clip0)">
<path d="M176.782 85.3496L153.593 62.4043V29.9677C153.593 27.1525 151.195 24.6836 148.379 24.6836H115.942L92.9967 1.56445C92.0596 0.521484 90.703 0 89.3477 0C87.991 0 86.6357 0.521484 85.6973 1.56445L62.752 24.6836H30.3154C27.4988 24.6836 25.0313 27.1525 25.0313 29.9677V62.4043L1.91211 85.3496C-0.173828 87.331 -0.173828 90.669 1.91211 92.6504L25.0313 115.596V148.032C25.0313 150.848 27.4988 153.316 30.3154 153.316H62.752L85.6973 176.436C86.6357 177.479 87.991 178 89.3477 178C90.703 178 92.0596 177.479 92.9967 176.436L115.942 153.316H148.379C151.195 153.316 153.593 150.848 153.593 148.032V115.596L176.782 92.6504C178.869 90.669 178.869 87.331 176.782 85.3496Z" fill="#FFE1BA"/>
<path d="M176.782 92.6504L153.593 115.596V148.032C153.593 150.848 151.195 153.316 148.379 153.316H115.942L92.9967 176.436C92.0596 177.479 90.703 178 89.3477 178V0C90.703 0 92.0596 0.521484 92.9967 1.56445L115.943 24.6836H148.38C151.195 24.6836 153.595 27.1525 153.595 29.9677V62.4043L176.783 85.3496C178.869 87.331 178.869 90.669 176.782 92.6504Z" fill="#FFE1BA"/>
<path d="M176.782 92.6504L153.593 115.596V148.032C153.593 150.848 151.195 153.316 148.379 153.316H115.942L92.9967 176.436C92.0596 177.479 90.703 178 89.3477 178V0C90.703 0 92.0596 0.521484 92.9967 1.56445L115.943 24.6836H148.38C151.195 24.6836 153.595 27.1525 153.595 29.9677V62.4043L176.783 85.3496C178.869 87.331 178.869 90.669 176.782 92.6504Z" fill="#FFE1BA"/>
<path d="M113.231 88.9999L106.557 95.7792C105.514 96.7176 104.992 98.0743 104.992 99.4296V104.644H99.7773C98.4206 104.644 97.0653 105.166 96.1269 106.209L89.3476 112.884L82.5669 106.209C81.6299 105.166 80.2732 104.644 78.9179 104.644H73.7031V99.4296C73.7031 98.0743 73.1816 96.7176 72.1372 95.7792L65.4639 88.9999L72.1386 82.2206C73.1816 81.2822 73.7031 79.9256 73.7031 78.5702V73.3554H78.9179C80.2732 73.3554 81.6299 72.8339 82.5669 71.7909L89.3476 65.1162L96.1269 71.7909C97.0653 72.8339 98.4206 73.3554 99.7773 73.3554H104.992V78.5702C104.992 79.9256 105.514 81.2822 106.557 82.2206L113.231 88.9999Z" fill="#61D7B0"/>
<path d="M101.237 24.7528H99.7773C95.8132 24.7528 92.1641 26.3172 89.3476 28.8201C86.531 26.3172 82.8806 24.7528 78.9179 24.7528H77.458L89.3476 12.6201L101.237 24.7528Z" fill="#61D7B0"/>
<path d="M12.9365 88.9998L25.1344 77.1497V78.5702C25.1344 82.5913 26.7015 86.2254 29.203 88.9998C26.7015 91.7743 25.1344 95.4084 25.1344 99.4295V100.85L12.9365 88.9998Z" fill="#61D7B0"/>
<path d="M101.237 153.247L89.3476 165.38L77.458 153.247H78.9179C82.9852 153.247 86.531 151.683 89.3476 149.18C92.1641 151.683 95.7099 153.247 99.7773 153.247H101.237Z" fill="#61D7B0"/>
<path d="M115.422 107.7V101.589L122.796 94.2148H137.915C140.793 94.2148 143.195 96.552 143.195 99.4297V111.28L134.753 119.658C132.716 121.695 129.416 121.695 127.379 119.658L115.422 107.7Z" fill="#FF9100"/>
<path d="M143.195 35.1526V51.9718L142.192 50.9682C139.36 48.1367 135.645 46.6185 131.932 46.4147C131.728 42.7019 130.211 38.9877 127.38 36.1562L126.376 35.1526H143.195Z" fill="#06CCAB"/>
<path d="M120.005 134.406L111.628 142.847H99.7773C96.8997 142.847 94.5625 140.445 94.5625 137.567V122.448L101.937 115.074H108.048L120.005 127.032C122.037 129.063 122.037 132.374 120.005 134.406Z" fill="#FF9100"/>
<path d="M58.6903 134.406C56.6573 132.374 56.6573 129.063 58.6903 127.032L70.6477 115.074H76.7589L84.133 122.448V137.569C84.133 140.445 81.7945 142.847 78.9181 142.847H67.0666L58.6903 134.406Z" fill="#FDBF00"/>
<path d="M58.6897 43.5941L67.0661 35.1526H78.9176C81.7939 35.1526 84.1325 37.5549 84.1325 40.4326V55.5516L76.7583 62.9257H70.6472L58.6897 50.9682C56.6581 48.9366 56.6581 45.6257 58.6897 43.5941Z" fill="#FDBF00"/>
<path d="M120.005 43.5941C122.037 45.6257 122.037 48.9366 120.005 50.9682L108.048 62.9257H101.937L94.5625 55.5516V40.4313C94.5625 37.5549 96.8997 35.1526 99.7773 35.1526H111.628L120.005 43.5941Z" fill="#FF9100"/>
<path d="M63.2736 70.2997V76.4109L55.8995 83.785H40.7792C37.9015 83.785 35.5005 81.4478 35.5005 78.5701V66.7199L43.942 58.3422C45.9791 56.3052 49.2791 56.3052 51.3161 58.3422L63.2736 70.2997Z" fill="#FDBF00"/>
<path d="M35.5005 99.4297C35.5005 96.552 37.9015 94.2148 40.7792 94.2148H55.8995L63.2736 101.589V107.7L51.3161 119.658C49.2791 121.695 45.9791 121.695 43.942 119.658L35.5005 111.28V99.4297Z" fill="#FDBF00"/>
<path d="M143.195 78.5701C143.195 81.4478 140.793 83.785 137.915 83.785H122.796L115.422 76.4109V70.2997L127.379 58.3422C129.416 56.3052 132.716 56.3052 134.753 58.3422L143.195 66.7199V78.5701Z" fill="#FF9100"/>
<path d="M35.5005 35.1526H52.3184L51.3161 36.1562C48.4846 38.9877 46.9663 42.7032 46.7626 46.4161C43.0498 46.6198 39.3356 48.1367 36.5027 50.9682L35.5005 51.9718V35.1526Z" fill="#61D7B0"/>
<path d="M35.5005 142.847V126.028L36.5041 127.032C39.3356 129.863 43.0498 131.381 46.7627 131.585C46.9664 135.298 48.4846 139.012 51.3161 141.844L52.3197 142.847H35.5005Z" fill="#61D7B0"/>
<path d="M143.195 142.847H126.376L127.38 141.844C130.211 139.012 131.728 135.297 131.932 131.584C135.645 131.38 139.36 129.863 142.192 127.032L143.195 126.028V142.847Z" fill="#06CCAB"/>
<path d="M153.559 100.85V99.4295C153.559 95.4084 151.992 91.7743 149.491 88.9998C151.992 86.2254 153.559 82.5913 153.559 78.5702V77.1497L165.759 88.9998L153.559 100.85Z" fill="#06CCAB"/>
<path d="M99.7773 153.247H101.237L89.3477 165.38V149.18C92.1642 151.683 95.71 153.247 99.7773 153.247Z" fill="#06CCAB"/>
<path d="M99.7773 24.7528C95.8132 24.7528 92.1642 26.3172 89.3477 28.8201V12.6201L101.237 24.7528H99.7773Z" fill="#06CCAB"/>
<path d="M113.231 88.9999L106.557 95.7792C105.514 96.7176 104.992 98.0743 104.992 99.4296V104.644H99.7773C98.4207 104.644 97.0654 105.166 96.127 106.209L89.3477 112.884V65.1162L96.127 71.7909C97.0654 72.8339 98.4207 73.3554 99.7773 73.3554H104.992V78.5702C104.992 79.9256 105.514 81.2822 106.557 82.2206L113.231 88.9999Z" fill="#06CCAB"/>
</g>
<defs>
<clipPath id="clip0">
<rect width="178" height="178" fill="white"/>
</clipPath>
</defs>
</svg>
